<svg xmlns="http://www.w3.org/2000/svg" version="1.1" xmlns:xlink="http://www.w3.org/1999/xlink" xmlns:svgjs="http://svgjs.dev/svgjs" width="1140" height="200" preserveAspectRatio="none" viewBox="0 0 1140 200"><g mask="url(&quot;#SvgjsMask1035&quot;)" fill="none"><path d="M 0,40 C 45.6,43.2 136.8,60.6 228,56 C 319.2,51.4 364.8,12.4 456,17 C 547.2,21.6 592.8,78.6 684,79 C 775.2,79.4 820.8,22.2 912,19 C 1003.2,15.8 1094.4,54.2 1140,63L1140 200L0 200z" fill="rgba(11, 131, 70, 1)"></path><path d="M 0,171 C 76,160.4 228,113.6 380,118 C 532,122.4 608,190.8 760,193 C 912,195.2 1064,141.8 1140,129L1140 200L0 200z" fill="rgba(14, 213, 102, 1)"></path></g><defs><mask id="SvgjsMask1035"><rect width="1140" height="200" fill="#ffffff"></rect></mask></defs></svg>